<svg xmlns="http://www.w3.org/2000/svg" viewBox="0 0 160 160">
<defs>
<linearGradient id="bg" x1="0" y1="0" x2="160" y2="160" gradientUnits="userSpaceOnUse"><stop stop-color="#047857"/><stop offset="1" stop-color="#34d399"/></linearGradient>
<linearGradient id="body" x1="0" y1="0" x2="0" y2="1"><stop stop-color="#ffffff"/><stop offset="1" stop-color="#d1fae5"/></linearGradient>
<linearGradient id="side" x1="0" y1="0" x2="0" y2="1"><stop stop-color="#6ee7b7"/><stop offset="1" stop-color="#34d399"/></linearGradient>
<filter id="sh" x="-30%" y="-30%" width="160%" height="160%"><feDropShadow dx="0" dy="8" stdDeviation="9" flood-color="#064e3b" flood-opacity="0.3"/></filter>
</defs>
<rect width="160" height="160" rx="36" fill="url(#bg)"/>
<circle cx="126" cy="30" r="24" fill="#fff" opacity="0.1"/>
<circle cx="30" cy="128" r="18" fill="#fff" opacity="0.07"/>
<g filter="url(#sh)">
  <!-- Handle -->
  <path d="M67 67 Q67 45 80 45 Q93 45 93 67" fill="none" stroke="#fff" stroke-width="5.5" stroke-linecap="round"/>
  <!-- Body main face -->
  <rect x="51" y="65" width="57" height="53" rx="9" fill="url(#body)"/>
  <!-- Right 3D face -->
  <path d="M108,65 L116,71 L116,126 L108,118 Z" fill="url(#side)" opacity="0.65"/>
  <!-- Bottom 3D face -->
  <path d="M51,118 L108,118 L116,126 L59,126 Z" fill="#34d399" opacity="0.45"/>
  <!-- Highlight top-left -->
  <rect x="51" y="65" width="57" height="12" rx="9" fill="#fff" opacity="0.45"/>
  <!-- Label lines -->
  <rect x="63" y="85" width="32" height="4" rx="2" fill="#047857" opacity="0.22"/>
  <rect x="63" y="94" width="22" height="4" rx="2" fill="#047857" opacity="0.14"/>
  <!-- Price tag dot -->
  <circle cx="68" cy="107" r="3.5" fill="#059669" opacity="0.3"/>
  <!-- Sparkle star -->
  <path d="M100,48 L101.5,52.5 L106,52.5 L102.5,55.3 L103.8,60 L100,57.3 L96.2,60 L97.5,55.3 L94,52.5 L98.5,52.5 Z" fill="#fff" opacity="0.8"/>
</g>
</svg>
