<svg xmlns="http://www.w3.org/2000/svg" viewBox="0 0 160 160">
<defs>
<linearGradient id="bg" x1="0" y1="0" x2="160" y2="160" gradientUnits="userSpaceOnUse"><stop stop-color="#4c1d95"/><stop offset="1" stop-color="#a78bfa"/></linearGradient>
<linearGradient id="page" x1="0" y1="0" x2="0" y2="1"><stop stop-color="#ffffff"/><stop offset="1" stop-color="#ede9fe"/></linearGradient>
<filter id="sh" x="-30%" y="-30%" width="160%" height="160%"><feDropShadow dx="0" dy="8" stdDeviation="9" flood-color="#2e1065" flood-opacity="0.3"/></filter>
</defs>
<rect width="160" height="160" rx="36" fill="url(#bg)"/>
<circle cx="126" cy="30" r="22" fill="#fff" opacity="0.1"/>
<circle cx="30" cy="130" r="18" fill="#fff" opacity="0.07"/>
<g filter="url(#sh)">
  <!-- Back page (shadow) -->
  <rect x="56" y="52" width="60" height="72" rx="8" fill="#c4b5fd" opacity="0.5" transform="rotate(-5 86 88)"/>
  <!-- Main page -->
  <rect x="48" y="56" width="62" height="74" rx="8" fill="url(#page)"/>
  <!-- Right 3D face -->
  <path d="M110,56 L118,62 L118,136 L110,130 Z" fill="#ddd6fe" opacity="0.55"/>
  <!-- Bottom 3D face -->
  <path d="M48,130 L110,130 L118,136 L56,136 Z" fill="#c4b5fd" opacity="0.4"/>
  <!-- Top header bar -->
  <rect x="48" y="56" width="62" height="14" rx="8" fill="#7c3aed" opacity="0.7"/>
  <rect x="70" y="56" width="40" height="14" fill="#7c3aed" opacity="0.7"/>
  <!-- Content lines -->
  <rect x="56" y="82" width="46" height="4" rx="2" fill="#7c3aed" opacity="0.2"/>
  <rect x="56" y="91" width="38" height="4" rx="2" fill="#7c3aed" opacity="0.15"/>
  <rect x="56" y="100" width="42" height="4" rx="2" fill="#7c3aed" opacity="0.15"/>
  <rect x="56" y="109" width="28" height="4" rx="2" fill="#7c3aed" opacity="0.12"/>
  <!-- Chat bubble decoration -->
  <rect x="56" y="118" width="32" height="7" rx="3.5" fill="#7c3aed" opacity="0.18"/>
  <!-- Sparkle top right -->
  <path d="M107,44 L108.5,48.5 L113,48.5 L109.5,51.2 L110.8,56 L107,53.3 L103.2,56 L104.5,51.2 L101,48.5 L105.5,48.5 Z" fill="#fff" opacity="0.75"/>
</g>
</svg>
