<svg xmlns="http://www.w3.org/2000/svg" viewBox="0 0 160 160">
<defs>
<linearGradient id="bg" x1="0" y1="0" x2="160" y2="160" gradientUnits="userSpaceOnUse"><stop stop-color="#3730a3"/><stop offset="1" stop-color="#818cf8"/></linearGradient>
<filter id="sh" x="-30%" y="-30%" width="160%" height="160%"><feDropShadow dx="0" dy="8" stdDeviation="9" flood-color="#1e1b4b" flood-opacity="0.3"/></filter>
</defs>
<rect width="160" height="160" rx="36" fill="url(#bg)"/>
<circle cx="128" cy="28" r="22" fill="#fff" opacity="0.1"/>
<circle cx="28" cy="132" r="20" fill="#fff" opacity="0.07"/>
<g filter="url(#sh)">
  <!-- Top face -->
  <path d="M50,80 L80,64 L110,80 L80,96 Z" fill="#fff" opacity="0.97"/>
  <!-- Left face -->
  <path d="M50,80 L80,96 L80,122 L50,106 Z" fill="#c7d2fe" opacity="0.82"/>
  <!-- Right face -->
  <path d="M80,96 L110,80 L110,106 L80,122 Z" fill="#e0e7ff" opacity="0.9"/>
  <!-- Tape strip on top -->
  <path d="M58,88 L80,76 L102,88" fill="none" stroke="#6366f1" stroke-width="4" stroke-linecap="round" stroke-linejoin="round" opacity="0.35"/>
  <!-- Location pin on top center -->
  <ellipse cx="80" cy="62" rx="10" ry="10" fill="#4f46e5" opacity="0.85"/>
  <circle cx="80" cy="60" r="4" fill="#fff" opacity="0.9"/>
  <path d="M80,66 L80,74" stroke="#4f46e5" stroke-width="3" stroke-linecap="round" opacity="0.7"/>
  <!-- Tracking code lines on left face -->
  <rect x="55" y="99" width="18" height="2.5" rx="1" fill="#6366f1" opacity="0.3"/>
  <rect x="55" y="104" width="12" height="2.5" rx="1" fill="#6366f1" opacity="0.2"/>
</g>
</svg>
